<svg height="42.545" viewBox="0 0 42.546 42.545" width="42.546" xmlns="http://www.w3.org/2000/svg"><g fill="#fff"><path d="m29.25 0h-15.95a13.3 13.3 0 0 0 -13.3 13.3v15.95a13.3 13.3 0 0 0 13.3 13.3h15.95a13.3 13.3 0 0 0 13.3-13.3v-15.95a13.3 13.3 0 0 0 -13.3-13.3zm9.307 29.25a9.317 9.317 0 0 1 -9.307 9.307h-15.95a9.317 9.317 0 0 1 -9.311-9.307v-15.95a9.317 9.317 0 0 1 9.311-9.311h15.95a9.317 9.317 0 0 1 9.307 9.311z"/><path d="m138.636 128a10.636 10.636 0 1 0 10.636 10.636 10.637 10.637 0 0 0 -10.636-10.636zm0 17.284a6.648 6.648 0 1 1 6.648-6.648 6.657 6.657 0 0 1 -6.648 6.648z" transform="translate(-117.364 -117.364)"/><circle cx="32.707" cy="9.838" r="1.417"/></g></svg>