<svg height="130" viewBox="0 0 263 130" width="263" xmlns="http://www.w3.org/2000/svg"><g fill="#fff"><text font-family="Lato-Black, Lato" font-size="37" font-weight="800" transform="translate(0 122)"><tspan x="0" y="0">SNOW</tspan><tspan fill="#9bc0ff" y="0">MOUNT</tspan></text><path d="m202.871 308.565a.224.224 0 0 0 -.317 0l-16.5 16.511h33.324z" transform="translate(-71.058 -266.918)"/><path d="m135.085 224.789a4.943 4.943 0 0 0 -3.518-1.457 4.943 4.943 0 0 0 -3.519 1.459l-35.382 35.409h12.149l21.545-21.563a7.323 7.323 0 0 1 5.214-2.161 7.323 7.323 0 0 1 5.213 2.159l21.566 21.565h12.147z" transform="translate(.334 -202.039)"/><path d="m120.953 186-46.483-46.478a18.953 18.953 0 0 0 -13.491-5.588 18.954 18.954 0 0 0 -13.493 5.594l-46.44 46.478a3.574 3.574 0 0 0 2.528 6.1h8.4l40.426-40.464a12.044 12.044 0 0 1 8.574-3.555 12.044 12.044 0 0 1 8.573 3.551l40.468 40.468h8.4a3.574 3.574 0 0 0 2.527-6.1z" transform="translate(71 -133.934)"/></g></svg>