<svg height="38.033" viewBox="0 0 55.321 38.033" width="55.321" xmlns="http://www.w3.org/2000/svg"><path d="m52.97 83.665c-1.5-2.669-3.129-3.16-6.445-3.347-3.313-.225-11.642-.318-18.858-.318s-15.567.093-18.867.315c-3.309.19-4.941.678-6.455 3.35-1.545 2.666-2.345 7.257-2.345 15.341v.028c0 8.049.8 12.675 2.341 15.313 1.514 2.669 3.143 3.153 6.452 3.378 3.312.194 11.645.308 18.875.308s15.545-.114 18.861-.3c3.316-.225 4.944-.709 6.445-3.378 1.559-2.638 2.348-7.264 2.348-15.313v-.032c-.001-8.088-.79-12.679-2.352-15.345zm-32.225 25.724v-20.745l17.288 10.372z" fill="#fff" transform="translate(0 -80)"/></svg>